Coordinates
version=1
nRows=16
nColumns=63
inDegrees=yes

Units are S.I. units (second, meters, Newtons, ...)
If the header above contains a line with 'inDegrees', this indicates whether rotational values are in degrees (yes) or radians (no).

endheader
time	pelvis_tilt	pelvis_list	pelvis_rotation	pelvis_tx	pelvis_ty	pelvis_tz	hip_flexion_r	hip_adduction_r	hip_rotation_r	knee_angle_r	knee_angle_r_beta	ankle_angle_r	subtalar_angle_r	mtp_angle_r	hip_flexion_l	hip_adduction_l	hip_rotation_l	knee_angle_l	knee_angle_l_beta	ankle_angle_l	subtalar_angle_l	mtp_angle_l	L5_S1_Flex_Ext	L5_S1_Lat_Bending	L5_S1_axial_rotation	L4_L5_Flex_Ext	L4_L5_Lat_Bending	L4_L5_axial_rotation	L3_L4_Flex_Ext	L3_L4_Lat_Bending	L3_L4_axial_rotation	L2_L3_Flex_Ext	L2_L3_Lat_Bending	L2_L3_axial_rotation	L1_L2_Flex_Ext	L1_L2_Lat_Bending	L1_L2_axial_rotation	L1_T12_Flex_Ext	L1_T12_Lat_Bending	L1_T12_axial_rotation	Abs_r3	Abs_r2	Abs_r1	Abs_t1	Abs_t2	neck_flexion	neck_bending	neck_rotation	arm_flex_r	arm_add_r	arm_rot_r	elbow_flex_r	pro_sup_r	wrist_flex_r	wrist_dev_r	arm_flex_l	arm_add_l	arm_rot_l	elbow_flex_l	pro_sup_l	wrist_flex_l	wrist_dev_l
0.000000	0.576942	-3.795785	93.662479	0.183373	0.686144	0.790057	3.081067	-0.518203	6.760374	1.156326	0.020182	22.479508	-3.198641	0.000000	3.040194	0.142746	2.642263	1.681770	0.029352	21.331582	-0.856335	0.000000	0.376481	-0.034859	-1.394711	0.699164	-0.046362	-1.481881	0.618521	-0.084756	-1.481881	0.430281	-0.084756	-1.220372	0.349601	-0.071084	-1.133203	0.215121	-0.053996	-1.046034	2.689169	-0.394329	-7.756966	0.000000	0.000000	28.092649	13.586290	6.127137	17.504640	-3.759103	63.259376	33.309472	87.113626	-1.545864	-3.254748	14.242871	-3.389478	52.513687	41.427398	52.644064	-5.972871	3.731569
0.016667	0.619350	-3.800294	93.515532	0.183868	0.686341	0.791133	3.223120	-0.526136	5.365695	1.536598	0.026819	23.037092	-0.920153	0.000000	3.147625	0.117600	2.222763	1.808258	0.031560	21.498955	-0.786753	0.000000	0.362984	-0.030495	-1.391463	0.674097	-0.040558	-1.478429	0.596346	-0.074144	-1.478429	0.414854	-0.074144	-1.217530	0.337067	-0.062185	-1.130564	0.207409	-0.047236	-1.043597	2.592756	-0.344961	-7.738899	0.000000	0.000000	28.064019	13.617410	6.248408	17.489396	-3.629502	64.943230	33.533800	68.381019	-0.357927	-0.231005	14.320358	-3.481359	52.001241	41.490220	53.174210	-5.310848	4.006074
0.033333	0.634986	-3.816345	93.391510	0.184340	0.686499	0.792014	3.353859	-0.550289	4.226227	1.860966	0.032480	23.481930	0.935176	0.000000	3.247471	0.113657	1.834150	1.913450	0.033396	21.655230	-0.666497	0.000000	0.353502	-0.030743	-1.378862	0.656489	-0.040888	-1.465041	0.580769	-0.074748	-1.465041	0.404018	-0.074748	-1.206505	0.328262	-0.062691	-1.120326	0.201991	-0.047620	-1.034147	2.525032	-0.347768	-7.668819	0.000000	0.000000	28.042944	13.637411	6.264341	17.461698	-3.515023	66.185235	33.664426	54.471587	0.614772	1.989800	14.400569	-3.575973	51.726015	41.546098	53.568863	-4.818028	4.113691
0.050000	0.627598	-3.841991	93.289102	0.184784	0.686621	0.792716	3.472947	-0.587940	3.320703	2.133172	0.037231	23.824323	2.402797	0.000000	3.339426	0.127949	1.478621	1.999017	0.034889	21.800524	-0.506201	0.000000	0.347576	-0.034927	-1.358428	0.645483	-0.046453	-1.443330	0.571033	-0.084922	-1.443330	0.397245	-0.084922	-1.188625	0.322759	-0.071224	-1.103723	0.198605	-0.054102	-1.018821	2.482700	-0.395104	-7.555170	0.000000	0.000000	28.028590	13.647471	6.189248	17.423285	-3.415194	67.031251	33.712950	44.883146	1.390925	3.493941	14.482293	-3.671753	51.659105	41.595531	53.840652	-4.477720	4.076054
0.066667	0.600935	-3.875289	93.206993	0.185197	0.686710	0.793255	3.580050	-0.636371	2.627859	2.356958	0.041137	24.074575	3.518162	0.000000	3.423186	0.157504	1.158373	2.066633	0.036070	21.934954	-0.316500	0.000000	0.344743	-0.042372	-1.331679	0.640222	-0.056355	-1.414908	0.566378	-0.103023	-1.414908	0.394007	-0.103023	-1.165219	0.320128	-0.086405	-1.081989	0.196986	-0.065634	-0.998759	2.462463	-0.479321	-7.406397	0.000000	0.000000	28.020120	13.648770	6.037442	17.375896	-3.329546	67.527142	33.690972	39.113512	1.989225	4.367694	14.564323	-3.767131	51.771609	41.639015	54.002205	-4.273231	3.914795
0.083333	0.558747	-3.914293	93.143870	0.185574	0.686769	0.793648	3.674835	-0.692863	2.126429	2.536066	0.044263	24.242988	4.316726	0.000000	3.498447	0.199354	0.875605	2.117970	0.036966	22.058636	-0.108026	0.000000	0.344541	-0.052401	-1.300132	0.639848	-0.069693	-1.381390	0.566047	-0.127408	-1.381390	0.393776	-0.127408	-1.137615	0.319941	-0.106856	-1.056357	0.196871	-0.081169	-0.975099	2.461024	-0.592771	-7.230942	0.000000	0.000000	28.016702	13.642486	5.823233	17.321269	-3.257610	67.718769	33.610090	36.660501	2.428363	4.697335	14.645449	-3.860540	52.034623	41.677048	54.066151	-4.187872	3.651545
0.100000	0.504783	-3.957059	93.098419	0.185913	0.686801	0.793911	3.756966	-0.754695	1.795146	2.674237	0.046674	24.339863	4.833941	0.000000	3.564904	0.250529	0.632513	2.154702	0.037607	22.171687	0.108587	0.000000	0.346510	-0.064338	-1.265305	0.643503	-0.085570	-1.344387	0.569281	-0.156432	-1.344387	0.396026	-0.156432	-1.107142	0.321769	-0.131198	-1.028061	0.197996	-0.099660	-0.948979	2.475085	-0.727806	-7.037249	0.000000	0.000000	28.017501	13.629797	5.560935	17.261143	-3.198916	67.651996	33.481905	37.021929	2.727032	4.569140	14.724462	-3.950412	52.419245	41.710127	54.045119	-4.204951	3.307938
0.116667	0.442792	-4.001643	93.069328	0.186210	0.686811	0.794061	3.826108	-0.819148	1.612746	2.775212	0.048437	24.375504	5.105259	0.000000	3.622254	0.308057	0.431295	2.178501	0.038022	22.274223	0.322705	0.000000	0.350187	-0.077507	-1.228718	0.650332	-0.103085	-1.305513	0.575322	-0.188452	-1.305513	0.400229	-0.188452	-1.075128	0.325183	-0.158053	-0.998333	0.200097	-0.120059	-0.921539	2.501349	-0.876780	-6.833761	0.000000	0.000000	28.021682	13.611884	5.264857	17.197257	-3.152994	67.372686	33.318014	39.695612	2.903924	4.069384	14.800155	-4.035180	52.896571	41.738749	53.951738	-4.307777	2.905606
0.133333	0.376522	-4.046099	93.055282	0.186461	0.686801	0.794115	3.881927	-0.883503	1.557962	2.842735	0.049615	24.360213	5.166133	0.000000	3.670192	0.368971	0.274149	2.191040	0.038241	22.366361	0.523694	0.000000	0.355111	-0.091233	-1.191888	0.659476	-0.121340	-1.266381	0.583411	-0.221823	-1.266381	0.405856	-0.221823	-1.042902	0.329756	-0.186042	-0.968409	0.202910	-0.141320	-0.893916	2.536520	-1.032043	-6.628924	0.000000	0.000000	28.028410	13.589923	4.949314	17.131350	-3.119374	66.926700	33.130018	44.179366	2.977731	3.284342	14.871317	-4.113277	53.437699	41.763411	53.798635	-4.479658	2.466181
0.150000	0.309723	-4.088483	93.054968	0.186662	0.686774	0.794088	3.924089	-0.945040	1.609530	2.880546	0.050275	24.304291	5.052016	0.000000	3.708415	0.430299	0.163272	2.193993	0.038292	22.448218	0.700922	0.000000	0.360820	-0.104838	-1.156333	0.670078	-0.139435	-1.228604	0.592791	-0.254903	-1.228604	0.412381	-0.254903	-1.011792	0.335057	-0.213786	-0.939521	0.206172	-0.162394	-0.867250	2.577300	-1.185950	-6.431179	0.000000	0.000000	28.036852	13.565095	4.628615	17.065161	-3.097587	66.359901	32.929516	49.971006	2.967146	2.300291	14.936741	-4.183135	54.013726	41.784610	53.598441	-4.703904	2.011296
0.166667	0.246144	-4.126850	93.067073	0.186809	0.686735	0.793999	3.952258	-1.001039	1.746182	2.892387	0.050482	24.218043	4.798361	0.000000	3.736617	0.489072	0.100861	2.189032	0.038206	22.519910	0.843754	0.000000	0.366853	-0.117647	-1.123572	0.681282	-0.156471	-1.193795	0.602702	-0.286048	-1.193795	0.419276	-0.286048	-0.983125	0.340659	-0.239907	-0.912902	0.209620	-0.182236	-0.842679	2.620391	-1.330851	-6.248970	0.000000	0.000000	28.046173	13.538577	4.317074	17.000427	-3.087163	65.718151	32.728106	56.568349	2.890861	1.203506	14.995218	-4.243186	54.595748	41.802844	53.363784	-4.963822	1.562584
0.183333	0.220210	-4.128529	93.114137	0.186771	0.686706	0.793952	3.937963	-1.024026	1.891895	2.876871	0.050211	24.147637	4.530523	0.000000	3.739455	0.517452	0.126679	2.193142	0.038278	22.619538	0.928037	0.000000	0.367406	-0.123334	-1.120315	0.682309	-0.164034	-1.190335	0.603611	-0.299874	-1.190335	0.419908	-0.299874	-0.980276	0.341173	-0.251503	-0.910256	0.209936	-0.191044	-0.840236	2.624343	-1.395178	-6.230857	0.000000	0.000000	28.045566	13.559770	4.167061	17.093293	-3.099646	65.710185	32.543540	61.859591	2.641615	0.187892	15.016432	-4.289816	54.955978	41.841896	53.168939	-5.202778	1.212228
0.200000	0.201841	-4.124180	93.149827	0.186706	0.686674	0.793842	3.906879	-1.035565	2.198802	2.832212	0.049431	24.052197	4.060897	0.000000	3.722336	0.541885	0.248757	2.178542	0.038023	22.684192	0.849860	0.000000	0.367993	-0.127125	-1.114780	0.683399	-0.169076	-1.184453	0.604575	-0.309092	-1.184453	0.420579	-0.309092	-0.975432	0.341718	-0.259234	-0.905759	0.210271	-0.196917	-0.836085	2.628534	-1.438065	-6.200070	0.000000	0.000000	28.046400	13.552562	4.030801	17.075178	-3.111446	65.197181	32.390600	67.852616	2.622387	-0.675918	15.036187	-4.317271	55.262096	41.869017	52.991799	-5.393485	0.961952
0.216667	0.208278	-4.117704	93.221021	0.186524	0.686631	0.793702	3.857152	-1.026174	2.510812	2.756386	0.048108	23.946489	3.542715	0.000000	3.705580	0.545395	0.419876	2.165267	0.037791	22.739504	0.754054	0.000000	0.369032	-0.126649	-1.120762	0.685330	-0.168443	-1.190809	0.606283	-0.307934	-1.190809	0.421767	-0.307934	-0.980666	0.342684	-0.258263	-0.910619	0.210865	-0.196179	-0.840571	2.635962	-1.432678	-6.233340	0.000000	0.000000	28.048421	13.557843	3.976206	17.050953	-3.134288	64.345291	32.176836	76.963405	2.589951	-1.908501	15.026939	-4.309609	55.406470	41.885156	52.897793	-5.556665	0.862314
0.233333	0.211544	-4.110939	93.295502	0.186370	0.686597	0.793545	3.810033	-1.018443	2.695774	2.691197	0.046970	23.886415	3.193299	0.000000	3.684391	0.554210	0.711521	2.146060	0.037456	22.732421	0.459878	0.000000	0.371050	-0.127366	-1.123966	0.689078	-0.169397	-1.194214	0.609599	-0.309678	-1.194214	0.424074	-0.309678	-0.983470	0.344557	-0.259725	-0.913222	0.212018	-0.197290	-0.842974	2.650376	-1.440793	-6.251162	0.000000	0.000000	28.052250	13.525440	3.862337	16.962994	-3.154948	63.858850	32.151689	79.659860	2.511784	-2.188495	15.041704	-4.304199	55.588769	41.886064	52.710655	-5.686847	0.823744
0.250000	0.215612	-4.104484	93.343629	0.186251	0.686559	0.793365	3.767403	-1.008927	2.848708	2.641109	0.046096	23.837384	2.906340	0.000000	3.653150	0.560338	0.939201	2.114780	0.036910	22.711518	0.207867	0.000000	0.374035	-0.127834	-1.118690	0.694620	-0.170019	-1.188609	0.614502	-0.310815	-1.188609	0.427485	-0.310815	-0.978854	0.347329	-0.260678	-0.908936	0.213724	-0.198014	-0.839018	2.671695	-1.446080	-6.221820	0.000000	0.000000	28.057546	13.462137	3.728089	16.840176	-3.182587	63.454672	32.193039	80.118457	2.450930	-2.077054	15.072918	-4.284454	55.801319	41.867801	52.456112	-5.835082	0.814337
